<svg id="Fashion_Design" data-name="Fashion Design" xmlns="http://www.w3.org/2000/svg" width="10.271" height="8.018" viewBox="0 0 10.271 8.018">
  <path id="路径_75" data-name="路径 75" d="M793.874,281.765v1.92h-.6v-1.92Z" transform="translate(-787.647 -279.589)"/>
  <path id="路径_76" data-name="路径 76" d="M27.846,24.774c1.711,0,3.042.605,3.21,1.724l.008.06,0,.042c0,.925-1.085,1.512-2.775,1.532H28.2q-.154,0-.307-.016a4.813,4.813,0,0,1-.672-.1c-.686-.155-1.135-.444-1.163-.983v-.058a.844.844,0,0,1,.283-.612,1.921,1.921,0,0,1,1.274-.423.293.293,0,0,1,.274.155.378.378,0,0,1,.013.345.3.3,0,0,1-.262.18,1.431,1.431,0,0,0-.908.262.418.418,0,0,0-.07.083v.005c0,.123.235.279.679.379a4.279,4.279,0,0,0,.6.087l.136.009.131,0c1.417,0,2.226-.41,2.259-.825V26.62l0-.018c-.111-.654-1.132-1.128-2.527-1.146h-.086c-1.385,0-2.468.688-2.468,1.419,0,1.023.6,1.61,2.511,1.849l.035.005c.033,0,.087.011.164.017l.147.01a45.788,45.788,0,0,0,6.481-.384.314.314,0,0,1,.329.3l0,.035v3.346a.327.327,0,0,1-.276.339l-.928.088A41.9,41.9,0,0,1,28,32.766l-.08-.008q-.057-.006-.113-.015l-.017,0-.089-.011c-2.052-.279-2.9-1.091-2.922-2.442V26.814c.044-1.162,1.378-2.011,2.989-2.04h.082Zm-2.468,3.7V30.22c0,1.005.585,1.59,2.393,1.833l.094.012.045.008.071.008.06.005a40.618,40.618,0,0,0,5.6-.268l.8-.074v-2.66l-.626.064a39.612,39.612,0,0,1-5.671.284l-.1-.007A2.3,2.3,0,0,1,27.8,29.4a4.181,4.181,0,0,1-2.39-.893Z" transform="translate(-24.774 -24.774)"/>
  <path id="路径_77" data-name="路径 77" d="M227.3,671.942a.3.3,0,0,1,.3.271v1.412a.3.3,0,0,1-.6.031l0-.031v-1.381A.3.3,0,0,1,227.3,671.942Zm1.381.592a.3.3,0,0,1,.3.271l0,.031v.986a.3.3,0,0,1-.6.031v-1.017a.3.3,0,0,1,.3-.3Zm3.354,0a.3.3,0,0,1,.3.271v1.017a.3.3,0,0,1-.6.031l0-.031v-.986a.3.3,0,0,1,.3-.3Zm-1.578-.395a.3.3,0,0,1,.3.271l0,.031v1.381a.3.3,0,0,1-.6.031v-1.412A.3.3,0,0,1,230.457,672.139Zm2.959-.2a.3.3,0,0,1,.3.271l0,.031v1.381a.3.3,0,0,1-.6.031v-1.412A.3.3,0,0,1,233.416,671.942Z" transform="translate(-225.518 -666.306)"/>
</svg>
