<svg xmlns="http://www.w3.org/2000/svg" width="10.683" height="10.682" viewBox="0 0 10.683 10.682">
  <g id="General" transform="translate(0.1 0.15)">
    <g id="路径_78" data-name="路径 78" transform="translate(-2.5 -254.064)">
      <path d="M 6.786261081695557 264.5458984375 C 6.201391220092773 264.5458984375 5.633661270141602 264.4312438964844 5.098831176757812 264.2051086425781 C 4.581281185150146 263.9856872558594 4.117451190948486 263.6729736328125 3.72019100189209 263.2756958007812 C 3.321141004562378 262.8766784667969 3.008440971374512 262.412841796875 2.790771007537842 261.8970642089844 C 2.564651012420654 261.3632202148438 2.449980974197388 260.7954711914062 2.449980974197388 260.2096557617188 C 2.449980974197388 259.6248779296875 2.564640998840332 259.0571594238281 2.790791034698486 258.5222473144531 C 3.010210990905762 258.0047302246094 3.322901010513306 257.5409240722656 3.720201015472412 257.1436157226562 C 3.891340970993042 256.9724731445312 4.078250885009766 256.8143920898438 4.275731086730957 256.6737670898438 C 4.327630996704102 256.6367797851562 4.388781070709229 256.6172180175781 4.452550888061523 256.6172180175781 C 4.546280860900879 256.6172180175781 4.63352108001709 256.6591796875 4.691901206970215 256.7323303222656 C 4.744670867919922 256.798583984375 4.768141269683838 256.8844604492188 4.756330966949463 256.9679260253906 C 4.744501113891602 257.0514221191406 4.70025110244751 257.1241760253906 4.631731033325195 257.1727905273438 C 3.6478111743927 257.8721618652344 3.060381174087524 259.0078430175781 3.060381174087524 260.210693359375 C 3.060381174087524 262.2653503417969 4.732301235198975 263.9369506835938 6.787361145019531 263.9369506835938 C 6.805080890655518 263.9369506835938 6.822901248931885 263.9368286132812 6.840681076049805 263.9365539550781 C 8.889310836791992 263.9073486328125 10.53633117675781 262.2160339355469 10.51215076446533 260.1663513183594 C 10.50723075866699 259.7717895507812 10.44047069549561 259.383056640625 10.313720703125 259.0110778808594 L 10.30372142791748 258.9817199707031 L 10.3255615234375 258.959716796875 L 10.72265148162842 258.5595703125 L 10.77597141265869 258.5058288574219 L 10.80446147918701 258.5759582519531 C 11.01552104949951 259.0953674316406 11.1225414276123 259.64501953125 11.1225414276123 260.2096557617188 C 11.1225414276123 260.79443359375 11.00788116455078 261.3621826171875 10.78173065185547 261.8970947265625 C 10.56227111816406 262.4146728515625 10.2495813369751 262.8784790039062 9.852320671081543 263.2757263183594 C 9.453301429748535 263.6747436523438 8.98945140838623 263.9874572753906 8.473661422729492 264.2051391601562 C 7.939900875091553 264.4312438964844 7.372160911560059 264.5458984375 6.786261081695557 264.5458984375 Z" stroke="none"/>
      <path d="M 4.452549934387207 256.667236328125 C 4.401171684265137 256.667236328125 4.349432945251465 256.6826477050781 4.304731369018555 256.7145080566406 C 4.109761238098145 256.8533325195312 3.927041053771973 257.0074768066406 3.755551338195801 257.1789855957031 C 3.361531257629395 257.572998046875 3.053251266479492 258.0313110351562 2.836840629577637 258.5417175292969 C 2.613290786743164 259.0704956054688 2.499980926513672 259.6318969726562 2.499980926513672 260.2096557617188 C 2.499980926513672 260.7874145507812 2.613290786743164 261.349853515625 2.836840629577637 261.8776245117188 C 3.052230834960938 262.3880004882812 3.361531257629395 262.8463439941406 3.755551338195801 263.2403564453125 C 4.149571418762207 263.6343994140625 4.607900619506836 263.9426574707031 5.118301391601562 264.1590576171875 C 5.647060871124268 264.3826293945312 6.208500862121582 264.4959106445312 6.786261081695557 264.4959106445312 C 7.364031314849854 264.4959106445312 7.926481246948242 264.3826293945312 8.454221725463867 264.1590576171875 C 8.964620590209961 263.9436645507812 9.422950744628906 263.6343994140625 9.816970825195312 263.2403564453125 C 10.2110013961792 262.8463439941406 10.51927089691162 262.3880004882812 10.73568153381348 261.8776245117188 C 10.95923137664795 261.3488464355469 11.07254123687744 260.7874145507812 11.07254123687744 260.2096557617188 C 11.07254123687744 259.6502685546875 10.96638107299805 259.1072387695312 10.75814056396484 258.5947875976562 L 10.36105155944824 258.9949340820312 C 10.48661136627197 259.3634643554688 10.55704116821289 259.7564392089844 10.5621509552002 260.165771484375 C 10.58664131164551 262.2420654296875 8.917661666870117 263.9569396972656 6.841381072998047 263.986572265625 C 6.823369026184082 263.98681640625 6.805313110351562 263.9869384765625 6.787358283996582 263.9869384765625 C 4.704068183898926 263.9869384765625 3.010380744934082 262.2935180664062 3.010380744934082 260.210693359375 C 3.010380744934082 258.9418640136719 3.639181137084961 257.8169555664062 4.602801322937012 257.1320190429688 C 4.722230911254883 257.0473022460938 4.744690895080566 256.8788757324219 4.65282154083252 256.7635192871094 C 4.602445602416992 256.7004089355469 4.527890205383301 256.667236328125 4.452549934387207 256.667236328125 M 4.452550888061523 256.5672302246094 C 4.56157112121582 256.5672302246094 4.663050651550293 256.6160278320312 4.73098087310791 256.7011413574219 C 4.79231071472168 256.7781372070312 4.819571495056152 256.8778991699219 4.805830955505371 256.9749145507812 C 4.792060852050781 257.0721740722656 4.740510940551758 257.1569519042969 4.660660743713379 257.2135925292969 C 3.689950942993164 257.903564453125 3.110381126403809 259.0239868164062 3.110381126403809 260.210693359375 C 3.110381126403809 262.23779296875 4.759871482849121 263.886962890625 6.787361145019531 263.886962890625 C 6.804851055145264 263.886962890625 6.822441101074219 263.8868103027344 6.839991092681885 263.8865661621094 C 8.861091613769531 263.8577270507812 10.48601150512695 262.1891174316406 10.46216106414795 260.1669616699219 C 10.45730113983154 259.7776794433594 10.39143085479736 259.3941955566406 10.26639080047607 259.0271911621094 L 10.24640083312988 258.968505859375 L 10.29007148742676 258.9244995117188 L 10.68716049194336 258.5243530273438 L 10.79379081726074 258.4169006347656 L 10.85078048706055 258.55712890625 C 11.06429100036621 259.0825500488281 11.17254066467285 259.6385192871094 11.17254066467285 260.2096557617188 C 11.17254066467285 260.8011779785156 11.05655097961426 261.3754577636719 10.82779121398926 261.9165649414062 C 10.60579109191895 262.4401245117188 10.28950119018555 262.9092712402344 9.887681007385254 263.3110656738281 C 9.484071731567383 263.7146911621094 9.014861106872559 264.031005859375 8.493101119995117 264.2511901855469 C 7.953201293945312 264.4799194335938 7.37890100479126 264.5959167480469 6.786261081695557 264.5959167480469 C 6.194671154022217 264.5959167480469 5.620380878448486 264.4799194335938 5.079360961914062 264.2511596679688 C 4.555810928344727 264.0291748046875 4.086661338806152 263.7129211425781 3.684841156005859 263.3110656738281 C 3.281201362609863 262.9074401855469 2.96489143371582 262.438232421875 2.744710922241211 261.91650390625 C 2.51598072052002 261.3765258789062 2.399981498718262 260.8022155761719 2.399981498718262 260.2096557617188 C 2.399981498718262 259.6181640625 2.515971183776855 259.0438842773438 2.744730949401855 258.5027770996094 C 2.966701507568359 257.9792785644531 3.282980918884277 257.5101318359375 3.684841156005859 257.1082763671875 C 3.857940673828125 256.9351501464844 4.046991348266602 256.7752685546875 4.246730804443359 256.633056640625 C 4.307130813598633 256.5899963378906 4.378311157226562 256.5672302246094 4.452550888061523 256.5672302246094 Z" stroke="none" fill="#000"/>
    </g>
    <path id="路径_79" data-name="路径 79" d="M391.594,8.068a.155.155,0,0,1-.13-.064A.118.118,0,0,1,391.4,7.9l.064-2.132a.189.189,0,0,1,.064-.13l3.835-3.855a.56.56,0,0,1,.819,0l1.508,1.529a.551.551,0,0,1,.172.409.587.587,0,0,1-.172.409l-3.145,3.166a.2.2,0,1,1-.28-.28l3.145-3.166a.185.185,0,0,0,.064-.13.155.155,0,0,0-.064-.13L395.9,2.079a.184.184,0,0,0-.28,0L391.852,5.87l-.064,1.853L393.7,7.7c.108-.021.194.086.194.194s-.086.151-.194.151Zm2.132-.021a.155.155,0,0,1-.13-.064l-2.068-2.068a.2.2,0,1,1,.28-.28L393.856,7.7a.184.184,0,0,1,0,.28A.187.187,0,0,1,393.726,8.046Zm-.56-1.938a.155.155,0,0,1-.13-.064.184.184,0,0,1,0-.28l3.426-3.448a.2.2,0,1,1,.28.28l-3.425,3.447A.228.228,0,0,1,393.166,6.108Zm0,0" transform="translate(-387.43 -1.6)" stroke="#000" stroke-width="0.3"/>
  </g>
</svg>
