<svg xmlns="http://www.w3.org/2000/svg" width="10.272" height="10.732" viewBox="0 0 10.272 10.732">
  <g id="Graphic_Design" data-name="Graphic Design" transform="translate(0 0)">
    <path id="路径_73" data-name="路径 73" d="M214.261,59.606V58.144a.254.254,0,0,0-.256-.256h-5.555a.256.256,0,0,0-.256.256v1.462a.254.254,0,0,0,.256.256h5.555a.254.254,0,0,0,.256-.256Zm-.625-.491a.1.1,0,0,1-.095.095h-4.587a.138.138,0,0,1-.137-.137v-.437a.1.1,0,0,1,.095-.095h4.629a.1.1,0,0,1,.095.095Zm-2.385,9.072.5-.573,3.2-3.384a.328.328,0,0,0,.076-.273l-.717-3.548a.324.324,0,0,0-.32-.271h-5.516a.324.324,0,0,0-.32.271l-.718,3.547a.329.329,0,0,0,.076.273l3.3,3.481.391.438.041.028Zm-.372-4.607a.355.355,0,1,1,.355.355A.355.355,0,0,1,210.88,63.58Zm.649.9a.947.947,0,1,0-.592,0l0,2.314-2.628-2.745a.321.321,0,0,1-.076-.266l.422-2.607a.325.325,0,0,1,.321-.272h4.519a.324.324,0,0,1,.321.272l.427,2.607a.327.327,0,0,1-.076.266l-2.633,2.742Z" transform="translate(-206.097 -57.889)"/>
    <path id="路径_74" data-name="路径 74" d="M100.6,908.326m.118,0h10.036a.1.1,0,0,1,.118.118v.5a.1.1,0,0,1-.118.118H100.717a.1.1,0,0,1-.118-.118v-.5A.1.1,0,0,1,100.717,908.326Z" transform="translate(-100.599 -898.328)"/>
  </g>
</svg>
