<svg xmlns="http://www.w3.org/2000/svg" width="10.876" height="10.877" viewBox="0 0 10.876 10.877">
  <path id="Industrial_Design" data-name="Industrial Design" d="M131.96,124a.29.29,0,0,0-.194.086l-7.746,7.746-.755,2.589,2.589-.755,6.2-6.2.27-.28,1.273-1.273a.252.252,0,0,0,.032-.334l-1.532-1.521A.166.166,0,0,0,131.96,124Zm.065,2.88-1.219-1.219,1.154-1.154,1.219,1.219Zm-8.123,6.9.507-1.726,6.128-6.128,1.219,1.219-6.128,6.128ZM125.034,124l-1.834,1.834,3.161,3.161.3-.3-2.848-2.859,1.219-1.219.723.723-.3.3.3.3.3-.3.615.615-.3.3.3.3.3-.3.615.615-.615.615.3.3.917-.917Zm5.6,5.6-.3.3-.3.3.3.3.3-.3.615.615-.615.615.3.3.615-.615.615.615-.3.3.3.3.3-.3.723.723-1.23,1.219-2.859-2.848-.3.3,3.161,3.161,1.834-1.834Z" transform="translate(-123.059 -123.858)" stroke="#000" stroke-width="0.2"/>
</svg>
