<svg id="Interior_Design" data-name="Interior Design" xmlns="http://www.w3.org/2000/svg" width="11.54" height="11.678" viewBox="0 0 11.54 11.678">
  <path id="路径_64" data-name="路径 64" d="M281.841,379.4,283.449,381a.243.243,0,0,0,.338.025l1.408-1.4,1.67-1.67,1.606-1.6a.244.244,0,0,0-.025-.338L286.82,374.4a.278.278,0,0,0-.178-.081.21.21,0,0,0-.168.054l-1.539,1.555-1.669,1.679-1.45,1.457A.243.243,0,0,0,281.841,379.4Zm4.671-1.809-1.262-1.252,1.436-1.433,1.262,1.262-.5.5-.636-.637-.309.306.623.623Zm-2.624.1,1.063-1.063,1.262,1.262-1.064,1.064Zm-1.561,1.569,1.252-1.252,1.262,1.26-.428.429-.637-.637-.313.313.637.637-.509.509Z" transform="translate(-279.371 -370.648)" stroke="#000" stroke-width="0.06"/>
  <path id="路径_65" data-name="路径 65" d="M68.128,63.786l-.35.365.718.718.353-.362Zm-5.757-1.545a.371.371,0,0,1,.035-.523l5.414-4.773a.365.365,0,0,1,.487,0l2.2,1.9v-.669a.365.365,0,0,1,.365-.365h1.269a.365.365,0,0,1,.365.365v2.377l1.2,1.169a.37.37,0,1,1-.517.53l-1.429-1.37.006-2.068a.262.262,0,0,0-.523.006v1.618l-2.93-2.509a.365.365,0,0,0-.487,0L62.9,62.276a.371.371,0,0,1-.527-.035Zm.243.283" transform="translate(-62.279 -56.852)"/>
  <path id="路径_66" data-name="路径 66" d="M171.919,255.024a.365.365,0,0,1-.365.365h-8.2a.365.365,0,0,1-.365-.365v-4.987a.365.365,0,0,1,.73,0v4.237a.365.365,0,0,0,.365.365h6.729a.365.365,0,0,0,.365-.365v-4.245a.365.365,0,1,1,.73,0Zm0,.365-1.446-9.25L171.9,247.4l-.49.553-1.423-1.261Z" transform="translate(-161.695 -243.711)"/>
</svg>
