<svg id="UI_UX_Design" data-name="UI/UX Design" xmlns="http://www.w3.org/2000/svg" width="10.28" height="9.458" viewBox="0 0 10.28 9.458">
  <path id="路径_67" data-name="路径 67" d="M122.169,160.21h-9.458a.411.411,0,0,0-.411.411v8.635a.411.411,0,0,0,.411.411h9.458a.411.411,0,0,0,.411-.411v-8.635A.411.411,0,0,0,122.169,160.21Zm-.16,8.886h-9.164v-5.391h9.164Zm0-5.96h-9.164v-2.312h9.164Z" transform="translate(-112.3 -160.21)"/>
  <path id="路径_68" data-name="路径 68" d="M232.3,264.21m.106,0h.636a.094.094,0,0,1,.106.106v.636a.094.094,0,0,1-.106.106h-.636a.094.094,0,0,1-.106-.106v-.636A.094.094,0,0,1,232.406,264.21Z" transform="translate(-230.711 -262.833)"/>
  <path id="路径_69" data-name="路径 69" d="M360.3,264.21m.106,0h.636a.094.094,0,0,1,.106.106v.636a.094.094,0,0,1-.106.106h-.636a.094.094,0,0,1-.106-.106v-.636A.094.094,0,0,1,360.406,264.21Z" transform="translate(-357.122 -262.833)"/>
  <path id="路径_70" data-name="路径 70" d="M232.3,696.21m.212,0h2.543q.212,0,.212.181v.272q0,.181-.212.181h-2.543q-.212,0-.212-.181v-.272Q232.3,696.21,232.512,696.21Z" transform="translate(-230.776 -689.706)"/>
  <path id="路径_71" data-name="路径 71" d="M232.3,592.21m.212,0h2.543q.212,0,.212.181v.272q0,.181-.212.181h-2.543q-.212,0-.212-.181v-.272Q232.3,592.21,232.512,592.21Z" transform="translate(-230.776 -586.848)"/>
  <path id="路径_72" data-name="路径 72" d="M232.3,496.21m.212,0h2.543q.212,0,.212.181v.272q0,.181-.212.181h-2.543q-.212,0-.212-.181v-.272Q232.3,496.21,232.512,496.21Z" transform="translate(-230.776 -491.902)"/>
</svg>
